<svg id="Calque_1" data-name="Calque 1" xmlns="http://www.w3.org/2000/svg" viewBox="0 0 915 446"><defs><style>.cls-1{stroke:#000;stroke-miterlimit:10;stroke-width:2px;}</style></defs><path d="M287,223.7q4.62-5.94,10-11.66t10.78-10.78q5.39-5.06,10.45-9.24t9-7q2.85-13.2,4.95-25.19t3.85-21.67a32.4,32.4,0,0,0,.66-3.41,22.14,22.14,0,0,1,.44-2.53,2.24,2.24,0,0,1,4.4.88,23.9,23.9,0,0,0-.55,3.3c-.08.88-.19,1.69-.33,2.42q-1.77,9.9-4,22.22t-5.28,25.52v.66q-3.53,15.63-8,31.13a197.15,197.15,0,0,1-10.23,27.83,80.4,80.4,0,0,1-12.65,20q-6.93,7.71-15.51,7.7-6.82,0-10.23-5.06a19.58,19.58,0,0,1-3.41-11.22,30.89,30.89,0,0,1,1.43-9.24,54.76,54.76,0,0,1,3.63-8.91,62.71,62.71,0,0,1,5.06-8.25Q284.39,227.22,287,223.7Zm-11,33.88a15.91,15.91,0,0,0,2.09,7.92c1.39,2.5,3.7,3.74,6.93,3.74q7,0,13-6.71a72.84,72.84,0,0,0,11-17.6,188.06,188.06,0,0,0,9.24-24.75q4.17-13.86,7.48-28.38-7.92,6.16-17.6,15.29a173.41,173.41,0,0,0-17.6,19.25q-2.43,3.3-5.06,6.93a62,62,0,0,0-4.73,7.59,47.15,47.15,0,0,0-3.41,8.25A28.73,28.73,0,0,0,276,257.58Zm37.18-108.46a2,2,0,0,1-1.76.44,2.57,2.57,0,0,1-1.43-.88,1.89,1.89,0,0,1-.44-1.54,2.26,2.26,0,0,1,1-1.54,194.38,194.38,0,0,0,15.62-12.21,120.74,120.74,0,0,0,13.86-14.19,1.64,1.64,0,0,1,1.54-.77,3.68,3.68,0,0,1,1.54.55,1.81,1.81,0,0,1,.77,1.32,2.4,2.4,0,0,1-.55,1.76A147.8,147.8,0,0,1,313.22,149.12Z"/><path d="M375.26,180.14q-1.32,5.07-3.52,12.76t-4.29,15.95q-2.1,8.25-3.63,15.84a65,65,0,0,0-1.54,12.43c0,2.5.07,3.74.22,3.74.44,0,1.28-1,2.53-3.08s2.67-4.62,4.29-7.7a140.32,140.32,0,0,0,6.27-12.87q3-6.93,4.73-12a2.3,2.3,0,0,1,4.4,1.32,120.68,120.68,0,0,1-5,12.54q-3.19,7-6.27,13.2a59.35,59.35,0,0,1-6.05,9.35q-3,3.63-4.95,3.63-4.85,0-4.84-8.14a63.16,63.16,0,0,1,1-10.12q1-5.94,2.53-12.76l-.66,1.32a57.83,57.83,0,0,1-8,11.77q-4.29,4.74-8.25,4.73c-3.38,0-5.72-1.17-7-3.52a18.74,18.74,0,0,1-2-9.24,72.58,72.58,0,0,1,2.64-19.14q2.64-9.67,5.06-18.92a1.77,1.77,0,0,1,1-1.43,2.57,2.57,0,0,1,1.65-.11,2.7,2.7,0,0,1,1.43.88,2.05,2.05,0,0,1,.33,1.76l-4.95,18.37a70.82,70.82,0,0,0-2.53,18.59q0,8.14,4.4,8.14,2.42,0,5.72-4a60.39,60.39,0,0,0,6.6-10.12,170.14,170.14,0,0,0,8.58-18.7q4-10.11,6.38-17.6a8.84,8.84,0,0,0,.55-1.87,5.24,5.24,0,0,1,.55-1.65,1.77,1.77,0,0,1,1-1.43,2.57,2.57,0,0,1,1.65-.11,2.7,2.7,0,0,1,1.43.88,2.05,2.05,0,0,1,.33,1.76c-.3,1-.59,2-.88,2.86S375.55,179.26,375.26,180.14Z"/><path d="M407.15,204.78a2,2,0,0,1,1.32-1.1,2.57,2.57,0,0,1,1.65.11,2,2,0,0,1,1.1,1.21,2.65,2.65,0,0,1-.11,2q-2.42,5.07-5.06,10t-5.28,9.13a32.05,32.05,0,0,1-5.94,7,9.49,9.49,0,0,1-6.16,2.64,6,6,0,0,1-2.64-.44c-2.2-.88-3.77-2.86-4.73-5.94a36.51,36.51,0,0,1-1.21-11.66,150.61,150.61,0,0,1,1.32-16.17q1.11-8,2.64-15.73,2.43-11.88,5.72-24.64t6.93-24q3.63-11.22,7.15-20a85.81,85.81,0,0,1,6.16-13,8.31,8.31,0,0,1,2.75-2.75,4.18,4.18,0,0,1,3.63-.33,5.09,5.09,0,0,1,3,2.53,8.14,8.14,0,0,1,1,3.85q0,6.83-3,17.38t-7.48,22.66q-4.5,12.1-9.79,24.42t-9.68,22.44q-1.32,3.09-2.53,5.83c-.8,1.84-1.57,3.63-2.31,5.39q-.43,3.3-.66,6.38c-.14,2.06-.22,4-.22,5.72a37.15,37.15,0,0,0,.55,9.13q.78,3.42,2.53,4.29a.45.45,0,0,1,.33.11c.08.08.26.11.55.11q1.77,0,3.85-2.2a45.54,45.54,0,0,0,4.51-5.72q2.43-3.73,5.06-8.69T407.15,204.78Zm7.92-99.22a1.79,1.79,0,0,0-1.32.88,76.41,76.41,0,0,0-5.94,12.87Q404.51,128,401,139t-6.82,23.43q-3.3,12.44-5.5,24.31l-.22.66q4.41-9.9,9.24-21.45t8.8-22.44q4-10.89,6.6-20.46t2.64-15.51a8.2,8.2,0,0,0-.11-1.21C415.55,105.82,415.37,105.56,415.07,105.56Z"/><path d="M427.39,204.78a2.37,2.37,0,0,1,1.32-1.21,2.14,2.14,0,0,1,1.65,0,3.21,3.21,0,0,1,1.32,1.1,1.86,1.86,0,0,1,.11,1.87q-2,5.07-4.51,10.12a84,84,0,0,1-5.17,9,32.29,32.29,0,0,1-4.73,5.94,6.68,6.68,0,0,1-4.51,2.2,5.73,5.73,0,0,1-4.07-1.54,8.19,8.19,0,0,1-2.31-4,25,25,0,0,1-1.1-7.48,66.69,66.69,0,0,1,.44-7.7c.3-3.08.73-6.34,1.32-9.79s1.25-6.85,2-10.23,1.47-6.6,2.2-9.68,1.47-5.86,2.2-8.36a1.82,1.82,0,0,1,1-1.43,2.57,2.57,0,0,1,1.65-.11,2.47,2.47,0,0,1,1.43,1,2.29,2.29,0,0,1,.33,1.87c-.73,2.5-1.47,5.25-2.2,8.25s-1.47,6.16-2.2,9.46-1.39,6.64-2,10-1,6.6-1.32,9.68q-.23,3.09-.33,6.6a17.92,17.92,0,0,0,1,6.6c.15.44.33.92.55,1.43a1.38,1.38,0,0,0,1.43.77q.88,0,2.31-1.65a43.51,43.51,0,0,0,3.19-4.29,83.52,83.52,0,0,0,4.84-8.69A100.19,100.19,0,0,0,427.39,204.78Zm-11.22-40.92a2.37,2.37,0,0,1-1.76.55,2.12,2.12,0,0,1-1.43-.77,2.86,2.86,0,0,1-.66-1.54,1.63,1.63,0,0,1,.77-1.54,75.12,75.12,0,0,1,13-9.46,2.13,2.13,0,0,1,1.76-.11,2.45,2.45,0,0,1,1.32,1.1,2.66,2.66,0,0,1,.33,1.65,1.63,1.63,0,0,1-1,1.32c-2.2,1.32-4.33,2.72-6.38,4.18S418.08,162.25,416.17,163.86Z"/><path d="M465.23,204.56a1.92,1.92,0,0,1,1.54-.88,2.75,2.75,0,0,1,1.54.44,2.19,2.19,0,0,1,.88,1.32,2,2,0,0,1-.44,1.76q-2.43,3.3-5.39,6.82a44.75,44.75,0,0,1-6.6,6.38,37.8,37.8,0,0,1-7.7,4.73,20,20,0,0,1-8.47,1.87,13.21,13.21,0,0,1-8.47-2.53,13.46,13.46,0,0,1-4.51-6.71,24.64,24.64,0,0,1-.66-10.89,60.32,60.32,0,0,1,2.64-10.67,55.17,55.17,0,0,1,4.51-9.46,41.19,41.19,0,0,1,6.27-8.14,34,34,0,0,1,7.48-5.72,17,17,0,0,1,8.36-2.2,8.28,8.28,0,0,1,8.58,8.58,13.52,13.52,0,0,1-1.32,5.72,33.24,33.24,0,0,1-4.62,7.15,46.7,46.7,0,0,1-6.38,6.27,39.22,39.22,0,0,1-7.59,4.84,36.23,36.23,0,0,1-8,2.86,2.08,2.08,0,0,1-1.87-.44,2.28,2.28,0,0,1-.88-1.43,2.7,2.7,0,0,1,.33-1.65,2.06,2.06,0,0,1,1.54-1.1,28.74,28.74,0,0,0,6.93-2.42,36.51,36.51,0,0,0,6.71-4.18,44.07,44.07,0,0,0,5.72-5.39,21.42,21.42,0,0,0,4-6.27,9.79,9.79,0,0,0,.88-4q0-4-4-4a13.08,13.08,0,0,0-6.82,2,28,28,0,0,0-6.16,5,39.79,39.79,0,0,0-5.28,7.23,52.32,52.32,0,0,0-4,8.32,58.43,58.43,0,0,0-2.42,9.31,19.72,19.72,0,0,0,.44,9.3,8.3,8.3,0,0,0,8.58,5.91,16.65,16.65,0,0,0,7.37-1.76,31.2,31.2,0,0,0,6.71-4.4,64.4,64.4,0,0,0,10.56-11.66Z"/><path d="M517.59,124.48a1.77,1.77,0,0,1,1-1.43,2.57,2.57,0,0,1,1.65-.11,2.7,2.7,0,0,1,1.43.88,2.05,2.05,0,0,1,.33,1.76q-4.62,16.5-8.58,32.89t-7.48,33.11q5.94-18.48,12.21-36.52t14.19-35.86a2.05,2.05,0,0,1,2.53-1.43,2,2,0,0,1,1.87,2.09q0,20.69-1.76,40.92t-2.2,40.92q11.88-25.74,25.41-50.16t27.61-49.06a1.91,1.91,0,0,1,2.75-1,2.18,2.18,0,0,1,1.43,2.75q-9.69,33-17.6,66.44t-12.54,67.54a2.14,2.14,0,0,1-1,1.54,2.3,2.3,0,0,1-1.54.33,2.48,2.48,0,0,1-1.43-.77,1.82,1.82,0,0,1-.44-1.76q4-29.7,10.45-58.74T580.51,121q-12.76,22.23-24.75,44.66t-22.55,46a2,2,0,0,1-2.2,1.32,1.62,1.62,0,0,1-1.43-.88,7.48,7.48,0,0,1-.88-2.2,16.16,16.16,0,0,1-.44-2.64c-.08-.88-.11-1.54-.11-2q0-18.48,1.54-36.74t2.2-36.74q-6.82,16.5-12.32,33t-11,33.22q-2.2,6.82-4.29,13.53T499.77,225a2,2,0,0,1-1.21,1.32,3.52,3.52,0,0,1-1.54.11,2,2,0,0,1-1.32-.77,2,2,0,0,1-.33-1.76q4-25.29,9.68-50T517.59,124.48Z"/><path d="M613.07,204.56a1.92,1.92,0,0,1,1.54-.88,2.75,2.75,0,0,1,1.54.44,2.19,2.19,0,0,1,.88,1.32,2,2,0,0,1-.44,1.76q-2.43,3.3-5.39,6.82a44.75,44.75,0,0,1-6.6,6.38,37.8,37.8,0,0,1-7.7,4.73,20,20,0,0,1-8.47,1.87,13.21,13.21,0,0,1-8.47-2.53,13.46,13.46,0,0,1-4.51-6.71,24.64,24.64,0,0,1-.66-10.89,60.32,60.32,0,0,1,2.64-10.67,55.17,55.17,0,0,1,4.51-9.46,41.19,41.19,0,0,1,6.27-8.14,34,34,0,0,1,7.48-5.72,17,17,0,0,1,8.36-2.2,8.28,8.28,0,0,1,8.58,8.58,13.52,13.52,0,0,1-1.32,5.72,33.24,33.24,0,0,1-4.62,7.15,46.7,46.7,0,0,1-6.38,6.27,39.22,39.22,0,0,1-7.59,4.84,36.23,36.23,0,0,1-8,2.86,2.08,2.08,0,0,1-1.87-.44,2.28,2.28,0,0,1-.88-1.43,2.7,2.7,0,0,1,.33-1.65,2.06,2.06,0,0,1,1.54-1.1,28.74,28.74,0,0,0,6.93-2.42,36.51,36.51,0,0,0,6.71-4.18,44.07,44.07,0,0,0,5.72-5.39,21.42,21.42,0,0,0,4-6.27,9.79,9.79,0,0,0,.88-4q0-4-4-4a13.08,13.08,0,0,0-6.82,2,28,28,0,0,0-6.16,5,39.79,39.79,0,0,0-5.28,7.23,52.32,52.32,0,0,0-4,8.32,58.43,58.43,0,0,0-2.42,9.31,19.72,19.72,0,0,0,.44,9.3,8.3,8.3,0,0,0,8.58,5.91,16.65,16.65,0,0,0,7.37-1.76,31.2,31.2,0,0,0,6.71-4.4,64.4,64.4,0,0,0,10.56-11.66Z"/><path d="M632.43,123.38a1.77,1.77,0,0,1,1-1.43,2.57,2.57,0,0,1,1.65-.11,2.7,2.7,0,0,1,1.43.88,2.05,2.05,0,0,1,.33,1.76q-2,6.83-3.74,13.53t-3.52,13.53q6.15,0,12.21.11t12,.33a2.2,2.2,0,1,1,0,4.4q-6.39-.44-12.65-.44H628.47Q626,165.18,624,174.53t-3.85,18.81q-1.77,9.24-3.42,18.48a80.94,80.94,0,0,0-1.2,18.48q.43,6.16,1.54,6.16c.29,0,1.06-.91,2.31-2.75s2.67-4.21,4.29-7.15a113.62,113.62,0,0,0,5.61-10.34q2.75-5.72,5-11.22a1.66,1.66,0,0,1,1.1-1.21,2.43,2.43,0,0,1,1.76,0,2.52,2.52,0,0,1,1.32,1.1,2.11,2.11,0,0,1,0,1.87q-2.21,5.73-5.06,11.44T627.59,229a64.12,64.12,0,0,1-5.94,8.69c-1.91,2.28-3.45,3.41-4.62,3.41a4.7,4.7,0,0,1-4.55-3,20.47,20.47,0,0,1-1.61-7.59A90.13,90.13,0,0,1,612,211.27q1.61-9.35,3.68-18.81,1.75-9.24,3.74-18.26t4.4-18.26h-9.57c-3.15,0-6.2.08-9.13.22a2,2,0,0,1-2.31-2.09c-.08-1.39.7-2.16,2.31-2.31,2.93,0,6.12,0,9.57-.11s6.85-.11,10.23-.11q1.75-7,3.63-14.08T632.43,123.38Z"/><path d="M667.85,184.1a2.27,2.27,0,0,1,3.08-1.32c1.46.59,1.9,1.54,1.32,2.86a119.51,119.51,0,0,0-4.4,15.62,65,65,0,0,0-1.76,13.2,16.53,16.53,0,0,0,.11,1.76,20.48,20.48,0,0,0,.33,2.2,4.59,4.59,0,0,0,.77,1.87,1.86,1.86,0,0,0,1.65.77,6,6,0,0,0,4.18-1.87,26.07,26.07,0,0,0,3.74-4.51,39,39,0,0,0,3-5.28c.8-1.76,1.43-3.22,1.87-4.4a2.37,2.37,0,0,1,1.32-1.21,2.14,2.14,0,0,1,1.65,0,2.57,2.57,0,0,1,1.21,1.1,2.11,2.11,0,0,1,0,1.87,48.4,48.4,0,0,1-2.53,5.61,53.21,53.21,0,0,1-3.74,6.16,22.87,22.87,0,0,1-4.84,5.06,9.46,9.46,0,0,1-5.83,2.09q-4.41,0-5.83-3.85a21,21,0,0,1-1.43-7.37v-.88c-.59.88-1.1,1.69-1.54,2.42a20,20,0,0,1-1.54,2.2,28.35,28.35,0,0,1-6.38,6.49A12.39,12.39,0,0,1,645,227q-5.73,0-8.36-4.29a21.33,21.33,0,0,1-3.08-9.57,47.42,47.42,0,0,1,1-11.33,53.57,53.57,0,0,1,3.74-11.66,54.88,54.88,0,0,1,6.16-10.45,31.81,31.81,0,0,1,8-7.7,20.83,20.83,0,0,1,5.61-2.64,14.21,14.21,0,0,1,6.05-.44,12,12,0,0,1,8.58,6.38,4.18,4.18,0,0,1,.44,1.87,1.5,1.5,0,0,1-1.1,1.43c-1.32.88-2.42.52-3.3-1.1a8.14,8.14,0,0,0-5.28-4,9.48,9.48,0,0,0-4.73.33,14.34,14.34,0,0,0-4.07,2.09,26.76,26.76,0,0,0-7,7,53.47,53.47,0,0,0-5.28,9.46,52.21,52.21,0,0,0-3.3,10.45,40.1,40.1,0,0,0-.88,10,19.17,19.17,0,0,0,1.54,6.38c.88,2.06,2.64,3.08,5.28,3.08a8.16,8.16,0,0,0,5.06-1.87,28.21,28.21,0,0,0,4.84-4.95,45,45,0,0,0,5.5-9.46,104.24,104.24,0,0,0,4.18-11.22Q665.87,190.05,667.85,184.1Z"/><path d="M725.26,173.32q-2.41,11.67-5.83,25.41t-7.59,27.61a119.85,119.85,0,0,0,8.58-10,69.54,69.54,0,0,0,7-11.33c.59-1.46,1.54-1.87,2.86-1.21a2,2,0,0,1,1.1,3,70.18,70.18,0,0,1-10.12,15.73q-5.94,6.93-12.32,13.31l-.44,1.1q-4.17,13.2-8.69,24.2a131.28,131.28,0,0,1-8.91,18.26q-3.51,5.73-7.7,6.82a6.23,6.23,0,0,1-3.74-.22,5.39,5.39,0,0,1-3.74-4.07,10.41,10.41,0,0,1,.22-5.61,58.6,58.6,0,0,1,11.11-22.88,227.31,227.31,0,0,1,17-19.14l.88-.88q1.77-5.28,3.19-10.56t3-10.78a9.17,9.17,0,0,1-1.1,2,47,47,0,0,1-8.25,11.22q-4.5,4.41-9.57,4.4a8.54,8.54,0,0,1-4.84-1.32,9.86,9.86,0,0,1-3.19-3.52,17.66,17.66,0,0,1-1.76-4.73,23.61,23.61,0,0,1-.55-4.95,75.11,75.11,0,0,1,2-18.7q2.21-9.45,4.84-18.26a2.13,2.13,0,0,1,2.86-1.65,1.92,1.92,0,0,1,1.54,2.75q-2.42,8.58-4.62,17.71a70.53,70.53,0,0,0-2,18.15,26.59,26.59,0,0,0,.22,3.08,10.77,10.77,0,0,0,.88,3.19,8.64,8.64,0,0,0,1.76,2.53,3.86,3.86,0,0,0,2.86,1.1c2.5,0,4.92-1.24,7.26-3.74a44.07,44.07,0,0,0,6.6-9.46,94.43,94.43,0,0,0,5.28-11q2.43-5.94,4.4-11.44T719,179.26c.81-3.08,1.43-5.42,1.87-7a2.18,2.18,0,0,1,1-1.54,2.21,2.21,0,0,1,1.65-.22,2.44,2.44,0,0,1,1.43,1A2.29,2.29,0,0,1,725.26,173.32ZM680.38,277.38a5.57,5.57,0,0,0-.44,2.42,1.89,1.89,0,0,0,1.1,2h1.1q2.21-.66,5.06-4.84a99.1,99.1,0,0,0,7.37-14.63q3.63-8.69,7.15-19.25a150.13,150.13,0,0,0-13,15.84A53,53,0,0,0,680.38,277.38Z"/><path d="M801.38,205a1.66,1.66,0,0,1,1.1-1.21,2.43,2.43,0,0,1,1.76,0,2.52,2.52,0,0,1,1.32,1.1,2.11,2.11,0,0,1,0,1.87q-.66,1.77-1.76,4.62t-2.64,6.38q-1.54,3.53-3.41,7.15t-3.85,6.93a34.43,34.43,0,0,1-5.5,7.15c-1.91,1.84-3.81,2.75-5.72,2.75a4.11,4.11,0,0,1-2.86-1,7.79,7.79,0,0,1-1.76-2.31,12.76,12.76,0,0,1-1.1-5.39,33.41,33.41,0,0,1,.44-5.61,123.54,123.54,0,0,1,4-18q2.64-8.79,5.06-18a1.85,1.85,0,0,0,.11-1.1,1.14,1.14,0,0,0-.55-.88,13.15,13.15,0,0,0-5.5,1.21q-2.64,1.22-5.28,2.53A82.1,82.1,0,0,1,764,212.26a50.25,50.25,0,0,1-11.44,10.67,21.87,21.87,0,0,1-12.1,4.07,13.21,13.21,0,0,1-8.47-2.53,13.46,13.46,0,0,1-4.51-6.71,24.79,24.79,0,0,1-.66-10.89,61.21,61.21,0,0,1,2.64-10.67,55.17,55.17,0,0,1,4.51-9.46,41.19,41.19,0,0,1,6.27-8.14,34,34,0,0,1,7.48-5.72,17,17,0,0,1,8.36-2.2,8.28,8.28,0,0,1,8.58,8.58,13.52,13.52,0,0,1-1.32,5.72,33.24,33.24,0,0,1-4.62,7.15,46.7,46.7,0,0,1-6.38,6.27,39.22,39.22,0,0,1-7.59,4.84,36.23,36.23,0,0,1-8,2.86,2.08,2.08,0,0,1-1.87-.44,2.28,2.28,0,0,1-.88-1.43,2.7,2.7,0,0,1,.33-1.65,2.08,2.08,0,0,1,1.54-1.1,28.74,28.74,0,0,0,6.93-2.42,36.51,36.51,0,0,0,6.71-4.18,44.07,44.07,0,0,0,5.72-5.39,21.42,21.42,0,0,0,4-6.27,9.79,9.79,0,0,0,.88-4q0-4-4-4a13.08,13.08,0,0,0-6.82,2,28,28,0,0,0-6.16,5,39.79,39.79,0,0,0-5.28,7.23,52.32,52.32,0,0,0-4,8.32,59.51,59.51,0,0,0-2.42,9.31,19.72,19.72,0,0,0,.44,9.3,8.3,8.3,0,0,0,8.58,5.91,17.63,17.63,0,0,0,10.12-3.52,49.38,49.38,0,0,0,9.9-9.46A75.88,75.88,0,0,0,769.37,195,72.73,72.73,0,0,0,775,178.6a1.77,1.77,0,0,1,1-1.43,3.15,3.15,0,0,1,1.65-.22,2.06,2.06,0,0,1,1.43.88,2.37,2.37,0,0,1,.33,1.87,71.81,71.81,0,0,1-2,7.48,22.05,22.05,0,0,1,4.07-1.76,14.85,14.85,0,0,1,4.51-.66,4.63,4.63,0,0,1,3.85,1.87,6.6,6.6,0,0,1,1.43,4.07,7.1,7.1,0,0,1-.44,2q-2.43,8.81-5.06,17.49A103.57,103.57,0,0,0,782,228.1a24.81,24.81,0,0,0-.55,4.4,8.25,8.25,0,0,0,.77,4.18.89.89,0,0,0,1.1.44,7.82,7.82,0,0,0,3.08-2.53,35.27,35.27,0,0,0,3.52-5.17,68.93,68.93,0,0,0,3.74-6.6q1.76-3.51,3.3-6.93t2.64-6.27Q800.72,206.77,801.38,205Z"/><path class="cls-1" d="M198.23,101.42a.87.87,0,0,0,.05.36c1.39,3.91,2.36,8,3.51,11.93a54.11,54.11,0,0,0,4.37,11.2,54.68,54.68,0,0,0,6.44,9c4.87,5.68,10.44,10.84,14.37,17.26a37,37,0,0,1,5,24.48c-2.47,16.94-14.67,30-26.73,41.15-1.55,1.43-3.11,2.84-4.67,4.26-.92.84.46,2.22,1.38,1.37,12.31-11.18,25.2-23.12,30.33-39.48a40.45,40.45,0,0,0,.28-24.08c-2.37-7.59-7.18-13.7-12.44-19.5-5.11-5.62-10.51-11.14-13.67-18.16a84.47,84.47,0,0,1-4-12.33c-.72-2.61-1.49-5.18-2.39-7.72a1,1,0,0,0-1.85.28Z"/><path class="cls-1" d="M235.06,306.94c-.65-4.51-1.56-9-2.6-13.42-4.16-17.62-10.64-34.83-12.38-52.95a86.42,86.42,0,0,1-.14-15.26c.44-5.32,1.24-10.76-.38-16-.37-1.19-2.25-.68-1.88.52,1.41,4.54.87,9.31.44,14a88,88,0,0,0-.25,13.39,140.78,140.78,0,0,0,4.42,25.84c4.35,17.22,10.47,34.21,11.72,52.05a28.18,28.18,0,0,1-1,11.19c-1.06,3.16-3.14,5.95-6.59,6.53-1.24.21-.71,2.09.51,1.88,6.89-1.16,9-9.21,9.18-15.16A71,71,0,0,0,235.06,306.94Z"/><path class="cls-1" d="M111.84,112.43A1,1,0,0,0,110,113c3,19,8.12,37.51,13.6,55.94,1.53,5.18,3,10.37,4.16,15.65a113.36,113.36,0,0,1,2.09,16.82c.65,11,.89,22.14,1.3,33.2s1,22.2,0,33.25a95.16,95.16,0,0,1-7.62,29.46,94.76,94.76,0,0,1-6.92,12.91c-2.48,3.88-5.61,7.57-6.89,12.09-2.12,7.4,2.64,15.29,9.61,18a13.23,13.23,0,0,0,5.53.88c1.25-.06,1.26-2,0-1.94-8,.38-15.28-7.79-13.45-15.72,1.07-4.64,4.38-8.42,6.89-12.34a94.63,94.63,0,0,0,6.8-12.67A97.29,97.29,0,0,0,132.77,271c1.33-10.75.9-21.59.5-32.38s-.76-21.75-1.22-32.63a156.69,156.69,0,0,0-1.3-15.76,122.55,122.55,0,0,0-3.51-15.83c-2.87-10.2-6-20.3-8.71-30.55a315.93,315.93,0,0,1-6.63-31.18.79.79,0,0,0-.06-.22Z"/><path class="cls-1" d="M231.23,337.49c-12.57,7.68-28.2,4.19-42,3.77a76.18,76.18,0,0,0-11.2.41c-4.2.49-8.36,1.26-12.57,1.64a55.46,55.46,0,0,1-42.13-14.13c-.92-.84-2.3.53-1.38,1.38a57.55,57.55,0,0,0,40.21,14.9,115,115,0,0,0,12.4-1.39,84.19,84.19,0,0,1,12-.92c7.51,0,15,1,22.49,1.13,8,.13,16.24-.84,23.23-5.11C233.27,338.52,232.3,336.83,231.23,337.49Z"/><path class="cls-1" d="M146,259.82c3.84-7.95,7.66-16,10.22-24.44a67.78,67.78,0,0,0,2.6-12.6,54.35,54.35,0,0,0-.3-13.06c-1.21-8.73-3.76-17.3-2.89-26.21a36.68,36.68,0,0,1,9.16-21.26,30.07,30.07,0,0,1,22.78-9.87c1.25.05,1.25-1.9,0-1.94a31.63,31.63,0,0,0-21.28,7.68,36.73,36.73,0,0,0-11.79,20.22,43.73,43.73,0,0,0-.92,12.18,116.82,116.82,0,0,0,2.06,13.69,71.42,71.42,0,0,1,1.51,13.59,56.61,56.61,0,0,1-1.72,13.08c-2.39,9.78-6.75,18.93-11.11,27.95C143.75,260,145.43,260.94,146,259.82Z"/><path class="cls-1" d="M170.84,113c-1,.74,0,2.43,1,1.68a16.25,16.25,0,0,1,19.24,0,1,1,0,0,0,1.37,0,1,1,0,0,0,0-1.38A18.17,18.17,0,0,0,170.84,113Z"/><path class="cls-1" d="M169.27,104.72A32.55,32.55,0,0,1,184,103.27c.53.07,1-.5,1-1a1,1,0,0,0-1-1,33.79,33.79,0,0,0-15.26,1.53C167.58,103.25,168.08,105.13,169.27,104.72Z"/><path d="M275.88,300.13h6.87a41.82,41.82,0,0,1,7.78.47,8.82,8.82,0,0,1,5,3,8.6,8.6,0,0,1,1.93,5.69,9.26,9.26,0,0,1-1.33,4.95,8.2,8.2,0,0,1-3.78,3.22,17.43,17.43,0,0,1-6.8,1.12l12.4,16h-4.26l-12.4-16h-1.95v16h-3.45Zm3.45,3.38v11.71l5.94,0a14.93,14.93,0,0,0,5.1-.65,5.33,5.33,0,0,0,2.59-2.1,5.91,5.91,0,0,0,.92-3.23,5.57,5.57,0,0,0-.94-3.15,5.24,5.24,0,0,0-2.46-2,15.22,15.22,0,0,0-5.07-.6Z"/><path d="M319.25,300.13H339v3.38H322.7v10.8h16.17v3.37H322.7v13.55h16.17v3.38H319.25Zm11.67-9.94h5l-6.91,7.22h-3.24Z"/><path d="M359.36,300.13h17.28v3.38H362.81v10.8h13.83v3.37H362.81v16.93h-3.45Z"/><path d="M397,300.13h3.44v31.15h13.27v3.33H397Z"/><path d="M433.63,300.13h19.76v3.38H437.08v10.8h16.17v3.37H437.08v13.55h16.17v3.38H433.63Z"/><path d="M471.93,300.13h4l8.25,13.42,8.3-13.42h4l-10.28,16.66,11,17.82h-4l-8.95-14.55-9,14.55h-4l11-17.8Z"/><path d="M533.79,299.26a17.91,17.91,0,0,1,13.11,5.23,18.12,18.12,0,0,1-12.83,31,17.66,17.66,0,0,1-13-5.25,17.25,17.25,0,0,1-5.28-12.7,18.41,18.41,0,0,1,2.41-9.21,17.78,17.78,0,0,1,15.54-9.05Zm.15,3.35a14.24,14.24,0,0,0-7.26,2,14.43,14.43,0,0,0-5.35,5.37,15,15,0,0,0-1.92,7.53,14.49,14.49,0,0,0,14.53,14.61,14.85,14.85,0,0,0,7.43-1.94,14,14,0,0,0,5.33-5.33,15,15,0,0,0,1.91-7.51,14.64,14.64,0,0,0-1.91-7.42,14.32,14.32,0,0,0-5.39-5.31A14.58,14.58,0,0,0,533.94,302.61Z"/><path d="M573.49,300.13h3.44v31.15H590.2v3.33H573.49Z"/><path d="M626.48,299.26a17.91,17.91,0,0,1,13.11,5.23,18.12,18.12,0,0,1-12.83,31,17.66,17.66,0,0,1-13-5.25,17.27,17.27,0,0,1-5.27-12.7,18.4,18.4,0,0,1,2.4-9.21,17.78,17.78,0,0,1,15.54-9.05Zm.15,3.35a14.18,14.18,0,0,0-7.25,2A14.39,14.39,0,0,0,614,310a15,15,0,0,0-1.92,7.53,14.49,14.49,0,0,0,14.53,14.61,14.82,14.82,0,0,0,7.43-1.94,14,14,0,0,0,5.33-5.33,15,15,0,0,0,1.91-7.51,14.64,14.64,0,0,0-1.91-7.42,14.32,14.32,0,0,0-5.39-5.31A14.58,14.58,0,0,0,626.63,302.61Z"/><path d="M699.44,305.92l-2.68,2.53a20.41,20.41,0,0,0-6.31-4.3,16.94,16.94,0,0,0-6.69-1.47,16,16,0,0,0-7.73,2,14.49,14.49,0,0,0-5.68,5.4,14,14,0,0,0-2,7.21,14.25,14.25,0,0,0,2.09,7.39,14.78,14.78,0,0,0,5.77,5.51,16.63,16.63,0,0,0,8.06,2,13.77,13.77,0,0,0,9-3,11.87,11.87,0,0,0,4.36-7.78h-11v-3.33h14.85q0,8-4.74,12.69t-12.58,4.7q-9.55,0-15.14-6.51a17.33,17.33,0,0,1-4.29-11.6,17.79,17.79,0,0,1,2.47-9.12,17.54,17.54,0,0,1,6.75-6.6,19.72,19.72,0,0,1,9.7-2.38,21.68,21.68,0,0,1,8.25,1.58A24.78,24.78,0,0,1,699.44,305.92Z"/><path d="M722,300.13h3.44v34.48H722Z"/><path d="M747.71,300.13h19.76v3.38H751.16v10.8h16.17v3.37H751.16v13.55h16.17v3.38H747.71Z"/><path d="M784.26,328.18l2.93-1.75q3.09,5.69,7.15,5.69a6.85,6.85,0,0,0,3.26-.81,5.78,5.78,0,0,0,2.32-2.16,5.64,5.64,0,0,0,.79-2.89,5.87,5.87,0,0,0-1.17-3.4,28.18,28.18,0,0,0-5.9-5.53,29.82,29.82,0,0,1-5.37-4.71,8.59,8.59,0,0,1-1.83-5.27,8,8,0,0,1,1.08-4.1,7.67,7.67,0,0,1,3-2.92,8.8,8.8,0,0,1,4.26-1.07,9.15,9.15,0,0,1,4.56,1.21,15.58,15.58,0,0,1,4.48,4.44L801,307a13.41,13.41,0,0,0-3.31-3.39,5.7,5.7,0,0,0-3-.82,4.74,4.74,0,0,0-3.41,1.26,4.11,4.11,0,0,0-1.33,3.12,5.38,5.38,0,0,0,.47,2.18,7.87,7.87,0,0,0,1.71,2.29c.46.44,1.94,1.59,4.46,3.45a25.07,25.07,0,0,1,6.14,5.88,9.48,9.48,0,0,1,1.66,5.18,8.81,8.81,0,0,1-2.85,6.52,9.57,9.57,0,0,1-6.92,2.76,10.15,10.15,0,0,1-5.7-1.67A15.4,15.4,0,0,1,784.26,328.18Z"/></svg>